<svg id="Layer_1" data-name="Layer 1" xmlns="http://www.w3.org/2000/svg" viewBox="0 0 1088.2 732"><title>Untitled-2</title><path d="M199.46,1380.49c-3.89-3-8.33-3-12.68-1.73C179,1381,175.56,1387.07,178,1395c.33,1,.54,2.74,2.38,2.67,1.31,2.93,4.32,3.54,6.75,4.94h8.59c7.64-3.77,11.57-6.23,9.73-15.35A8.23,8.23,0,0,0,199.46,1380.49Z" transform="translate(-69.82 -670.61)" fill="#fe8b41"/><path d="M1150.9,1289c-8.7,2.54-17.18,12.77-16.1,20.23,0,1.6-.44,3.3,0,4.77.65,2.41.28,5.37,3,6.92a15.87,15.87,0,0,0,8,8.45c3.66,2.67,8,3.62,12.28,4.43v-46.06C1155.54,1287.6,1153.25,1288.35,1150.9,1289Z" transform="translate(-69.82 -670.61)" fill="#fe8b41"/><path d="M481.31,1389.66c-3.24-2.64-7-2.3-10.29-.78-4.67,2.16-5.55,9.6-1.42,11.34h0c.43,1.56,2.3,1.29,3.09,2.39h6.14C486.1,1398.49,486.87,1394.48,481.31,1389.66Z" transform="translate(-69.82 -670.61)" fill="#fe8b41"/><path d="M92.41,993h0c-.77-1.58-1.55-3.14-2.29-4.73a14.66,14.66,0,0,0-6.72-7c-3.12-3.42-7.41-4.4-11.63-5.47-1.39-.35-2,.32-2,1.83.11,4.7.09,9.4.13,14.11v30.08c3.34-1,6.43-1.66,9.34-3.15,6.93-3.53,11.55-8.75,13.51-16.41.83-3.24-.57-6.19-.39-9.29Z" transform="translate(-69.82 -670.61)" fill="#fe8b41"/><path d="M623.31,673h0c-1-1.62-3.2-1.16-4.46-2.37h-7.37c-.48,1-1.51.93-2.31,1.22-7.91,2.92-10.53,11-5.8,18,2.2,2.42,4.71,4.33,8.09,4.72h0c.93.73,2,.5,3,.49h0c10.17.48,15.76-5.56,14.69-15.85C627.44,676.94,626.67,673.74,623.31,673Z" transform="translate(-69.82 -670.61)" fill="#fe8b41"/><path d="M991.65,1268.73h0c-1.52-2.13-3.78-2.73-6.18-3.06a1.41,1.41,0,0,0-.94-.25c-9-2.31-15.77,3.8-14.82,13.7h0c.86,2.22,1.56,4.57,4.08,5.58a10.49,10.49,0,0,0,8,2.35c8,.3,13.6-4.51,13.42-11.58h0C994.93,1272.73,994.15,1270.28,991.65,1268.73Z" transform="translate(-69.82 -670.61)" fill="#fe8b41"/><path d="M272.38,853.62h0c-1.62-1.84-2-4.77-4.87-5.51a7.53,7.53,0,0,0-6.06-2.48,3,3,0,0,0-1.25-.31c-8.16-1.67-17.21,4.27-16.5,13.76-.18,1,0,1.73,1.12,1.93h0a4.89,4.89,0,0,0,2.54,4.2c1.83,2.47,4.46,3.58,7.33,4.27,3,.2,6.11.38,9-.75,4.48-1.74,8-4.51,9.24-9.47C273.44,857.3,272.18,855.54,272.38,853.62Z" transform="translate(-69.82 -670.61)" fill="#fe8b41"/><path d="M1007.59,1096.79c-1-2-2.88-2.66-4.88-3.09a1.68,1.68,0,0,0-.78-.26,10.5,10.5,0,0,0-10.17,2.58c-2.18,1.94-2.6,4.88-1.69,7.79a2.55,2.55,0,0,0,.32.91h0c.39,2.14,1.44,3.69,3.67,4.22h0c2.17,1.78,4.82,1.62,7.23,1.24,3.73-.58,6.84-2.53,8.34-6.19C1010.76,1101.2,1010,1098.71,1007.59,1096.79Z" transform="translate(-69.82 -670.61)" fill="#fe8b41"/><path d="M1119.89,968.84a6.27,6.27,0,0,0-3.61-6.59c-.54-1.22-1.82-1.23-2.82-1.53-3.32-1-8.39.87-10,3.49-1.39,2.29-.89,6.28,1.08,8.59h0c2.34,2.44,5.29,2.68,8.38,2.32A7.7,7.7,0,0,0,1119.89,968.84Z" transform="translate(-69.82 -670.61)" fill="#fe8b41"/><path d="M658.05,795.89h0c.42-3-2-4.35-3.61-6.13-2.06-1.46-4-3.15-6.78-3.07a1.73,1.73,0,0,0-1.13-.32c-9.28-2.33-17.31,4.79-16.44,15h0c.15,2.84,2.42,4.25,4.11,6h0a12.06,12.06,0,0,0,9.18,3.11c10,.51,16.41-5.92,14.67-14.62Z" transform="translate(-69.82 -670.61)" fill="#fe8b41"/><path d="M945.57,861.54a8.69,8.69,0,0,0-8.94-1.09c-2.23.89-4.57,2.29-5,4.8s-1,5.39,2.24,6.84c2.07,3.15,5.26,2.55,8.21,2.25,3.76-.38,6-3.08,7-6.3C950,865.16,947.56,863.28,945.57,861.54Z" transform="translate(-69.82 -670.61)" fill="#fe8b41"/><path d="M160.76,719.78c-2.72.3-6.3,3.06-6.7,5.22-.74,4,.08,6.09,3,7.6,2,2.79,5,2.13,7.47,1.69,6.81-1.18,8.43-8,4.58-12A11.05,11.05,0,0,0,160.76,719.78Z" transform="translate(-69.82 -670.61)" fill="#fe8b41"/><path d="M1022.89,1199.36a2,2,0,0,0-1.11-.36,10.1,10.1,0,0,0-9.77,2.63c-2.18,2-2.6,5-1.6,8a2.75,2.75,0,0,0,.25.71h0c.38,2.14,1.43,3.69,3.67,4.22h0c3.06,2,6.35,1.67,9.58.69,6.33-1.93,8.18-8.1,3.94-12.84C1026.8,1200.41,1024.94,1199.73,1022.89,1199.36Z" transform="translate(-69.82 -670.61)" fill="#fe8b41"/><path d="M373.18,806.34a1,1,0,0,0-.9-.26c-5.07-1.3-10.36.69-12.33,6.5-.49,1.45-1.13,3.55,1,4.75.56,2,1.17,3.92,3.67,4.24h0c2.14,1.54,4.62,1.5,7,1.25,4.09-.41,6.85-2.93,8.58-6.42,1.4-2.82-.58-4.93-2.23-7C377.06,807.36,375.06,807,373.18,806.34Z" transform="translate(-69.82 -670.61)" fill="#fe8b41"/><path d="M483.11,848.1A9.74,9.74,0,0,0,473,850a7.23,7.23,0,0,0-2.37,8.23,1,1,0,0,0,.28.84h0c.23,2.27,2.06,3.14,3.67,4.22h0a10.75,10.75,0,0,0,7,1.31c8.61-1.16,11.27-8.61,7.14-13.46C486.93,849.93,485.61,847.94,483.11,848.1Z" transform="translate(-69.82 -670.61)" fill="#fe8b41"/><path d="M982.9,784.84c-.11-2.31-1.65-3.46-3.53-4.32-2.19-1.92-4.86-2-7.49-1.72a9.85,9.85,0,0,0-8.1,6.15,5.77,5.77,0,0,0,2,7.33h0c1,2.06,2.92,2.61,4.88,3.14C978.73,797.54,984.46,792.58,982.9,784.84Z" transform="translate(-69.82 -670.61)" fill="#fe8b41"/><path d="M916.12,1244.76c-.63-1.28-2-1.33-3.09-1.62-3.63-.93-8.09.79-9.76,3.6-1.38,2.29-.86,6.26,1.11,8.56,1.39.85,2.46,2.31,4.32,2.29a33,33,0,0,0,4,0c5.13-.59,7.87-4.57,6.36-9.11C919.26,1246.3,918,1245.32,916.12,1244.76Z" transform="translate(-69.82 -670.61)" fill="#fe8b41"/><path d="M204.94,1087h0c-.9-1-2.25-.84-3.35-1.1a8.18,8.18,0,0,0-9,4c-1.9,3.31-1.67,4.87,1.23,8.27a3,3,0,0,0,3.1,1.77c3.23,1.32,6.12.66,9-1.19,3.45-2.22,3.53-5.21,2.49-8.63Z" transform="translate(-69.82 -670.61)" fill="#fe8b41"/><path d="M891.43,927.33c-.15-.15-.34-.32-.5-.27h0c-2.36-1.22-5.88-1.2-7.4.15s-1.53,4.17-.31,6.65a2.07,2.07,0,0,0,.31.61h0a6,6,0,0,0,5.39,1.36c2.2-.42,4.37-1.24,4.93-3.85A3.79,3.79,0,0,0,891.43,927.33Z" transform="translate(-69.82 -670.61)" fill="#fe8b41"/><path d="M333.19,1262.62c-1.12-2.28-2.75-3.92-5.42-4.22a8.19,8.19,0,0,0-9,1.39c-2.43,2-2.67,4.83-1.37,7.71.06,3.2,2.51,4,4.88,4.83h0c1,0,2,.12,3,.09,6.18-.18,9.14-3.86,7.91-9.8Z" transform="translate(-69.82 -670.61)" fill="#fe8b41"/><path d="M719.44,725.24h0c-.27-2.39-.74-4.67-3.42-5.58h0c-3.46-3.78-10.84-2.53-13.68.26-3.65,3.58-4.67,7.74-.05,11.7a8.78,8.78,0,0,0,6.8,2.75c6.28.09,11.1-3.69,10.35-9.13Z" transform="translate(-69.82 -670.61)" fill="#fe8b41"/><path d="M853,1354.13c-2.56.73-2.56,2.64-2.55,4.5s.36,3.94,3,4c2,1.21,3.94.72,5.87-.26,3.26-1.67,3.64-4.53.92-7.11C858.12,1353,855.69,1353.34,853,1354.13Z" transform="translate(-69.82 -670.61)" fill="#fe8b41"/><path d="M1124.19,1009c-2.44-2.21-7-2.45-8.73-.47-1.58,1.82-1.29,5,.55,7.21a1.18,1.18,0,0,0,.27.32h0a6.88,6.88,0,0,0,4.91.8c2-.47,4.21-1.18,4.73-3.63C1126.28,1011.55,1126.35,1009.76,1124.19,1009Z" transform="translate(-69.82 -670.61)" fill="#fe8b41"/><path d="M702.48,850.39c-1.76.69-3.15,1.81-3.16,4,0,1.94,0,3.88,2.44,4.52h0c2.85,1.48,6.52,1.1,8.08-1,1.84-2.43,1.37-4.69-.74-6.73A7.14,7.14,0,0,0,702.48,850.39Z" transform="translate(-69.82 -670.61)" fill="#fe8b41"/><path d="M225.08,1215.35c-1.81-2.1-4.19-2.18-6.58-1.61-1.8.44-3.36,1.48-3.62,3.56s-.14,4.27,2.35,5.25c3.14,1.29,6.64.86,8.12-1.14s1.6-4.12-.27-6.06Z" transform="translate(-69.82 -670.61)" fill="#fe8b41"/></svg>