<?xml version="1.0" encoding="utf-8"?>
<!-- Generator: Adobe Illustrator 22.0.1, SVG Export Plug-In . SVG Version: 6.00 Build 0)  -->
<svg version="1.1" id="Layer_1" xmlns="http://www.w3.org/2000/svg" xmlns:xlink="http://www.w3.org/1999/xlink" x="0px" y="0px"
	 viewBox="0 0 1920 1080" style="enable-background:new 0 0 1920 1080;" xml:space="preserve">
<style type="text/css">
	.st0{fill:#FFFFFF;}
	.st1{fill:#ADADAD;}
	.st2{fill:#6EA8FF;}
	.st3{fill:#6E97F1;}
	.st4{fill:#FF1981;}
	.st5{fill:#FEDD68;}
	.st6{fill:#474687;stroke:#2F2F5B;stroke-miterlimit:10;}
	.st7{fill:url(#SVGID_1_);}
	.st8{fill:url(#SVGID_2_);}
	.st9{fill:url(#SVGID_3_);}
</style>
<g>
	<g>
		<path class="st0" d="M1008.2,339.9c0,0-40.8-17-43.4,27.7c0,0-55.9,10.5-59.2,47.4c0,0-78.3-1.3-32.2,63.2c0,0-54.6,4.9-45.7,51.3
			c0,0-66.1,46.4-27.6,80c0,0-97.1,50.3-48.4,83.3c0,0-148.7,39.5-63.2,122.4c0,0-106.6,90.8,17.1,113.2c0,0,1.3,106.6,84.2,73.7
			c0,0,21.8,28.4,37.2,6.3c0,0,108.9,47.7,135.2-74.7c0,0,47.4-47.4,7.9-84.2c0,0,35.5-55.3,0-67.1c0,0,7.9-42.1-9.2-42.1
			c0,0,11.2-30.3-11.2-39.5c0,0,29-24.4-3.3-50.7c0,0,65.2-23.7,43.4-73.7c0,0,80-2.6,63.5-63.8c0,0,55.6,0,39.8-54.6
			c0,0,37.7-21.1,20.3-43.8L1008.2,339.9z"/>
		<path class="st1" d="M845,575.6c-2.1,8.1,0.4,16.3,5.9,21.9c-1.5-4.2-1.8-8.9-0.6-13.6c3.2-12.5,15.9-20,28.3-16.8
			c4.1,1,7.6,3.1,10.4,5.8c-2.6-6.7-8.3-12.1-15.8-14.1C860.8,555.7,848.2,563.2,845,575.6z"/>
		<path class="st1" d="M900.3,704.5c-7.5-7.3-17.9-9.7-27.3-7.3c5.5,1,10.8,3.6,15.1,7.8c11.5,11.2,11.7,29.5,0.5,41
			c-3.7,3.7-8.1,6.3-12.8,7.6c8.9,1.4,18.3-1.4,25-8.4C912,733.8,911.8,715.6,900.3,704.5z"/>
		<path class="st1" d="M874.2,846c-11.4-1.8-22.4,2.7-29.3,10.9c5.6-2.6,12-3.7,18.6-2.6c17.5,2.8,29.5,19.2,26.7,36.7
			c-0.9,5.7-3.3,10.8-6.6,15.1c8.9-4.5,15.6-13,17.2-23.6C903.5,865.1,891.6,848.7,874.2,846z"/>
		<path class="st1" d="M850.9,816.4c-7-4.3-15.4-4.3-22.2-0.8c4.4-0.2,8.9,0.9,12.9,3.3c10.7,6.6,14.1,20.6,7.6,31.4
			c-2.1,3.5-5.1,6.2-8.5,8.1c7-0.5,13.8-4.3,17.7-10.8C864.9,836.9,861.6,822.9,850.9,816.4z"/>
		<path class="st1" d="M1031.5,437.5c-3.1-10.8-11.5-18.6-21.5-21.4c4.6,3.9,8.1,9.1,9.9,15.3c4.7,16.6-4.9,33.8-21.5,38.5
			c-5.4,1.5-10.9,1.5-16,0.3c7.5,6,17.8,8.4,27.8,5.6C1026.6,471,1036.1,453.9,1031.5,437.5z"/>
		<path class="st1" d="M1004.6,480.9c-6.3-5.5-14.8-6.9-22.2-4.5c4.4,0.5,8.8,2.3,12.4,5.5c9.7,8.4,10.8,23.1,2.4,32.8
			c-2.7,3.2-6.2,5.4-9.9,6.7c7.2,0.7,14.6-2,19.6-7.9C1015.3,503.8,1014.3,489.2,1004.6,480.9z"/>
		<path class="st1" d="M823,584.6c-3.9,4.2-5.1,10-3.6,15.2c0.5-3,1.8-6,4.1-8.4c6-6.5,16.1-6.9,22.6-0.9c2.1,2,3.6,4.4,4.4,6.9
			c0.6-4.9-1.1-10.1-5-13.7C839,577.7,828.9,578.1,823,584.6z"/>
	</g>
	<path class="st2" d="M996.1,360.2l76.8,76.8c0,0,243.8-131.3,272.8-222.8c0,0-98.7-81.6-118.5-121.8
		C1227.3,92.5,1121.2,144.5,996.1,360.2z"/>
	<path class="st3" d="M1345.7,214.3c-29,91.5-272.8,222.8-272.8,222.8l-26.1-26.1c0,0,241.2-129.9,270.2-221.4L1345.7,214.3z"/>
	<path class="st4" d="M1345.8,214.3c0,0,38.9-58.1,32.7-150.5l0,0c-92.1-8.9-150.8,28.5-150.8,28.5S1233.5,127.7,1345.8,214.3z"/>
	<g>
		<circle class="st5" cx="1216.2" cy="222.8" r="67.9"/>
		<path class="st0" d="M1216.2,155.4c37.2,0,67.4,30.2,67.4,67.4c0,37.2-30.2,67.4-67.4,67.4c-37.2,0-67.4-30.2-67.4-67.4
			C1148.8,185.6,1179,155.4,1216.2,155.4 M1216.2,154.4c-37.7,0-68.4,30.7-68.4,68.4s30.7,68.4,68.4,68.4s68.4-30.7,68.4-68.4
			S1253.9,154.4,1216.2,154.4L1216.2,154.4z"/>
	</g>
	<circle class="st6" cx="1216.2" cy="223.3" r="46"/>
	<circle class="st0" cx="1244.9" cy="218.3" r="10"/>
	<linearGradient id="SVGID_1_" gradientUnits="userSpaceOnUse" x1="1002.7929" y1="355.4393" x2="1154.3929" y2="355.4393">
		<stop  offset="5.617763e-03" style="stop-color:#6696FD;stop-opacity:0.6"/>
		<stop  offset="5.169772e-02" style="stop-color:#6494FC;stop-opacity:0.6185"/>
		<stop  offset="0.6432" style="stop-color:#517AF4;stop-opacity:0.8565"/>
		<stop  offset="1" style="stop-color:#4A71F1"/>
	</linearGradient>
	<polygon class="st7" points="1154.4,298.6 1015.7,426.3 1002.8,412.3 1141.5,284.6 	"/>
	<linearGradient id="SVGID_2_" gradientUnits="userSpaceOnUse" x1="931.1536" y1="335.5948" x2="1062.4474" y2="231.4482">
		<stop  offset="5.617660e-03" style="stop-color:#6696FD"/>
		<stop  offset="5.169762e-02" style="stop-color:#6494FC"/>
		<stop  offset="0.6432" style="stop-color:#517AF4"/>
		<stop  offset="1" style="stop-color:#4A71F1"/>
	</linearGradient>
	<path class="st8" d="M1023.1,315.8l-24-10.3L943.3,362c0,0-22.8-54.3,11.8-96.2c12.5-15.2,30.3-25.1,49.6-29
		c16-3.2,40.6-5.7,75.4-3L1023.1,315.8z"/>
	<linearGradient id="SVGID_3_" gradientUnits="userSpaceOnUse" x1="1183.0989" y1="368.7145" x2="1112.6808" y2="500.3373">
		<stop  offset="0" style="stop-color:#4A71F1"/>
		<stop  offset="0.3568" style="stop-color:#517AF4"/>
		<stop  offset="0.9483" style="stop-color:#6494FC"/>
		<stop  offset="0.9944" style="stop-color:#6696FD"/>
	</linearGradient>
	<path class="st9" d="M1117.3,411.7l10.1,25l-60.1,55.5c0,0,53.6,24.3,96.5-9.1c15.5-12.1,26-29.6,30.4-48.7
		c3.7-15.9,6.8-40.4,5.1-75.3L1117.3,411.7z"/>
</g>
</svg>
