<svg id="Layer_1" data-name="Layer 1" xmlns="http://www.w3.org/2000/svg" viewBox="0 0 1009.89 669.75"><title>round_line</title><path d="M1034.4,476.51H945c-84.73,0-150.75-35.52-190.91-102.71-17.54-29.35-45.23-87.08-33.66-144,2.63-13,6.37-27,10-40.51,4.73-17.74,9.62-36.09,11.59-50.44,3.55-25.75,2.21-50.61.92-74.65-.6-10.92-1.15-21.24-1.28-31.61l77-.91c.11,8.76.62,18.29,1.16,28.39,1.42,26.35,3,56.23-1.52,89.26-2.62,19.08-8.14,39.78-13.47,59.79-3.47,13-6.75,25.33-8.93,36-4.67,23,4.19,55.46,24.32,89.13,26.22,43.88,67.06,65.22,124.83,65.22h89.36Z" transform="translate(-24.51 -27.25)" fill="#fed051"/><path d="M739.73,697c-3.19-10.2-82.1-252.18-363.13-290.5C202.74,382.79,116,281.58,73.92,200.84,28.88,114.52,24.66,34,24.51,30.6L94.4,27.25c.57,11.11,17.22,272.5,291.65,309.92,326.27,44.49,416.87,327.24,420.56,339.26Z" transform="translate(-24.51 -27.25)" fill="#8271ea"/></svg>